<?xml version="1.0" encoding="utf-8"?>
<svg xmlns="http://www.w3.org/2000/svg" fill="none" height="100%" overflow="visible" preserveAspectRatio="none" style="display: block;" viewBox="0 0 67 18" width="100%">
<g id="Logo">
<g id="Sarama">
<path d="M54.9333 17.8951C53.876 17.8951 53.0314 17.6596 52.3994 17.1884C51.7789 16.7058 51.4686 16.0451 51.4686 15.2062C51.4686 14.241 51.8248 13.563 52.5373 13.1723C53.2613 12.7816 54.2093 12.5173 55.3814 12.3795C55.4848 12.368 55.7951 12.3335 56.3122 12.276C56.8408 12.2186 57.22 12.1267 57.4499 12.0003C57.6797 11.8624 57.7946 11.6785 57.7946 11.4487C57.7831 11.0005 57.6107 10.6443 57.2775 10.38C56.9442 10.1042 56.4903 9.96634 55.9158 9.96634C55.3182 9.96634 54.8183 10.1157 54.4161 10.4145C54.0139 10.7018 53.7841 11.0867 53.7267 11.5693H51.6755C51.7329 10.9373 51.9512 10.3743 52.3305 9.88016C52.7097 9.37456 53.2096 8.98386 53.8301 8.70808C54.4621 8.43229 55.1688 8.2944 55.9502 8.2944C57.1568 8.2944 58.0934 8.59317 58.7599 9.1907C59.4379 9.78823 59.7769 10.5869 59.7769 11.5866V15.7233C59.7769 15.9876 59.9263 16.1198 60.225 16.1198H60.7249V17.7055H59.7596C59.3 17.7055 58.9265 17.6136 58.6392 17.4298C58.3634 17.2459 58.1853 16.9816 58.1049 16.6369C58.0704 16.5335 58.0417 16.43 58.0187 16.3266C57.4556 17.3723 56.4271 17.8951 54.9333 17.8951ZM55.3469 16.2921C56.0594 16.2921 56.6455 16.1083 57.1051 15.7406C57.5648 15.3729 57.7946 14.8845 57.7946 14.2755V13C57.6452 13.2413 57.3982 13.4136 57.0534 13.5171C56.7087 13.609 56.226 13.6952 55.6055 13.7756C54.893 13.856 54.3644 13.9767 54.0197 14.1376C53.6864 14.2985 53.5198 14.5972 53.5198 15.0339C53.5198 15.4361 53.675 15.7463 53.9852 15.9646C54.307 16.183 54.7609 16.2921 55.3469 16.2921Z" fill="var(--fill-0, white)" id="Vector"/>
<path d="M36.5212 17.7407V8.57122H38.1649L38.3206 9.85149C38.6205 9.39013 39.0357 9.01527 39.5663 8.72692C40.1084 8.43858 40.714 8.2944 41.383 8.2944C42.0289 8.2944 42.5941 8.45011 43.0785 8.76153C43.5745 9.06141 43.9436 9.47663 44.1858 10.0072C44.4511 9.4997 44.8663 9.09024 45.4315 8.77883C45.9967 8.45588 46.6311 8.2944 47.3347 8.2944C48.292 8.2944 49.0533 8.60582 49.6185 9.22865C50.1952 9.83995 50.4836 10.6416 50.4836 11.6335V17.7407H48.4247V11.7373C48.4247 11.2298 48.2805 10.8261 47.9921 10.5262C47.7038 10.2148 47.3116 10.0591 46.8156 10.0591C46.1236 10.0591 45.5699 10.2609 45.1547 10.6646C44.7395 11.0568 44.5261 11.5643 44.5145 12.1871V17.7407H42.473V11.7373C42.473 11.2298 42.3288 10.8261 42.0404 10.5262C41.7521 10.2148 41.3599 10.0591 40.8639 10.0591C40.1719 10.0591 39.6182 10.2609 39.203 10.6646C38.7877 11.0568 38.5744 11.5643 38.5628 12.1871V17.7407H36.5212Z" fill="var(--fill-0, white)" id="Vector_2"/>
<path d="M29.8787 17.931C28.8175 17.931 27.9697 17.6946 27.3354 17.2217C26.7125 16.7373 26.4011 16.0741 26.4011 15.2321C26.4011 14.2632 26.7586 13.5827 27.4738 13.1906C28.2004 12.7984 29.152 12.5331 30.3285 12.3947C30.4323 12.3832 30.7438 12.3486 31.2628 12.2909C31.7934 12.2333 32.174 12.141 32.4047 12.0141C32.6354 11.8757 32.7507 11.6912 32.7507 11.4605C32.7392 11.0107 32.5662 10.6531 32.2317 10.3878C31.8972 10.111 31.4416 9.97259 30.8649 9.97259C30.2651 9.97259 29.7633 10.1225 29.3596 10.4224C28.9559 10.7108 28.7252 11.0972 28.6676 11.5816H26.6087C26.6664 10.9472 26.8855 10.382 27.2661 9.88609C27.6468 9.37859 28.1485 8.98644 28.7714 8.70962C29.4058 8.43281 30.1151 8.2944 30.8995 8.2944C32.1106 8.2944 33.0506 8.59428 33.7196 9.19405C34.4001 9.79382 34.7404 10.5954 34.7404 11.5989V15.7511C34.7404 16.0164 34.8903 16.149 35.1902 16.149H35.692V17.7407H34.7231C34.2617 17.7407 33.8869 17.6484 33.5985 17.4639C33.3217 17.2794 33.1429 17.0141 33.0622 16.6681C33.0276 16.5643 32.9987 16.4605 32.9756 16.3566C32.4105 17.4062 31.3781 17.931 29.8787 17.931ZM30.2939 16.322C31.009 16.322 31.5973 16.1375 32.0587 15.7684C32.52 15.3993 32.7507 14.9091 32.7507 14.2978V13.0176C32.6008 13.2598 32.3528 13.4328 32.0068 13.5366C31.6607 13.6289 31.1763 13.7154 30.5534 13.7961C29.8383 13.8768 29.3077 13.9979 28.9617 14.1594C28.6272 14.3209 28.46 14.6208 28.46 15.0591C28.46 15.4628 28.6157 15.7742 28.9271 15.9933C29.2501 16.2125 29.7057 16.322 30.2939 16.322Z" fill="var(--fill-0, white)" id="Vector_3"/>
<path d="M20.7645 17.7405V8.57099H22.4081L22.6504 10.3703C23.2502 9.10155 24.3113 8.46719 25.8338 8.46719H26.1799V10.4568H25.8338C24.8765 10.4568 24.1325 10.699 23.6019 11.1834C23.0714 11.6679 22.8061 12.3426 22.8061 13.2076V17.7405H20.7645Z" fill="var(--fill-0, white)" id="Vector_4"/>
<path d="M14.1239 17.931C13.0628 17.931 12.215 17.6946 11.5806 17.2217C10.9577 16.7373 10.6463 16.0741 10.6463 15.2321C10.6463 14.2632 11.0039 13.5827 11.719 13.1906C12.4457 12.7984 13.3973 12.5331 14.5738 12.3947C14.6776 12.3832 14.989 12.3486 15.508 12.2909C16.0386 12.2333 16.4193 12.141 16.6499 12.0141C16.8806 11.8757 16.996 11.6912 16.996 11.4605C16.9844 11.0107 16.8114 10.6531 16.4769 10.3878C16.1424 10.111 15.6868 9.97259 15.1101 9.97259C14.5103 9.97259 14.0086 10.1225 13.6049 10.4224C13.2012 10.7108 12.9705 11.0972 12.9128 11.5816H10.8539C10.9116 10.9472 11.1308 10.382 11.5114 9.88609C11.892 9.37859 12.3938 8.98644 13.0166 8.70962C13.651 8.43281 14.3604 8.2944 15.1447 8.2944C16.3558 8.2944 17.2959 8.59428 17.9649 9.19405C18.6454 9.79382 18.9856 10.5954 18.9856 11.5989V15.7511C18.9856 16.0164 19.1356 16.149 19.4355 16.149H19.9372V17.7407H18.9683C18.507 17.7407 18.1321 17.6484 17.8437 17.4639C17.5669 17.2794 17.3881 17.0141 17.3074 16.6681C17.2728 16.5643 17.244 16.4605 17.2209 16.3566C16.6557 17.4062 15.6234 17.931 14.1239 17.931ZM14.5392 16.322C15.2543 16.322 15.8425 16.1375 16.3039 15.7684C16.7653 15.3993 16.996 14.9091 16.996 14.2978V13.0176C16.846 13.2598 16.598 13.4328 16.252 13.5366C15.906 13.6289 15.4215 13.7154 14.7987 13.7961C14.0836 13.8768 13.553 13.9979 13.2069 14.1594C12.8724 14.3209 12.7052 14.6208 12.7052 15.0591C12.7052 15.4628 12.8609 15.7742 13.1723 15.9933C13.4953 16.2125 13.9509 16.322 14.5392 16.322Z" fill="var(--fill-0, white)" id="Vector_5"/>
<path d="M5.46728 18C4.41765 18 3.48914 17.8385 2.68173 17.5156C1.87433 17.1811 1.23417 16.714 0.761266 16.1142C0.299893 15.5029 0.0461374 14.7993 0 14.0035H2.12809C2.22036 14.6725 2.56062 15.1972 3.14887 15.5779C3.73713 15.9585 4.50993 16.1488 5.46728 16.1488C6.25161 16.1488 6.84563 16.0104 7.24933 15.7336C7.66457 15.4452 7.87219 15.0415 7.87219 14.5225C7.87219 14.0842 7.71647 13.744 7.40505 13.5018C7.09362 13.2595 6.60918 13.0346 5.95172 12.827L3.97935 12.2388C3.26422 12.0196 2.66443 11.8005 2.17999 11.5813C1.70708 11.3622 1.28031 11.0277 0.899679 10.5779C0.53058 10.1281 0.34603 9.53983 0.34603 8.81319C0.34603 8.14422 0.519045 7.55022 0.865075 7.0312C1.22264 6.51217 1.72438 6.10848 2.37031 5.82013C3.02776 5.52025 3.7948 5.3703 4.67141 5.3703C6.13627 5.3703 7.307 5.73939 8.18361 6.47757C9.06022 7.21574 9.5389 8.22496 9.61964 9.50523H7.50886C7.46272 8.80166 7.18589 8.24803 6.67838 7.84434C6.18241 7.42912 5.49035 7.22151 4.6022 7.22151C3.93321 7.22151 3.39686 7.35415 2.99316 7.61943C2.60099 7.88471 2.40491 8.24803 2.40491 8.70939C2.40491 9.03234 2.49718 9.29762 2.68173 9.50523C2.87782 9.70131 3.10274 9.85125 3.35649 9.95506C3.62178 10.0589 4.04855 10.2088 4.6368 10.4049L6.47076 10.9758C7.20896 11.2065 7.81451 11.4429 8.28742 11.6852C8.77186 11.9158 9.17557 12.2503 9.49853 12.6886C9.82149 13.1269 9.98297 13.7036 9.98297 14.4187C9.98297 15.1453 9.79842 15.7797 9.42932 16.3218C9.06022 16.8639 8.53541 17.2791 7.85488 17.5675C7.17436 17.8558 6.37849 18 5.46728 18Z" fill="var(--fill-0, white)" id="Vector_6"/>
</g>
<g id="Group 183">
<path d="M65.5862 2.26917C64.3865 2.92624 62.8868 3.39761 61.1871 3.49661C63.1296 5.96873 62.7582 8.55414 62.7582 8.55414C65.0006 6.75435 65.5862 4.78316 65.5862 2.26917Z" fill="var(--fill-0, #CD422D)" id="Rectangle 165"/>
<path d="M66.1578 1.93437C66.2817 1.85618 66.4427 1.94507 66.443 2.09159V4.07695C66.443 4.32977 66.3138 4.56582 66.1002 4.70097C64.9867 5.40525 63.7689 5.8685 62.5182 6.09452C62.4336 5.79447 62.3244 5.47838 62.1832 5.15312C62.0916 4.94212 61.987 4.72643 61.8668 4.50956C62.0319 5.14548 62.0359 5.7002 61.9732 6.17753C59.7065 6.45986 57.3648 5.96911 55.36 4.70097C55.1463 4.56582 55.0172 4.32977 55.0172 4.07695V2.09159C55.0174 1.94499 55.1794 1.85596 55.3033 1.93437C58.6178 4.03081 62.8434 4.03091 66.1578 1.93437Z" fill="var(--fill-0, #CD422D)" id="Subtract"/>
<path d="M66.4437 3.54534C66.4437 3.69212 66.2819 3.78126 66.1578 3.70279C62.8433 1.6062 58.6178 1.6062 55.3032 3.70279C55.1792 3.78126 55.0173 3.69212 55.0173 3.54534L55.0173 2.17885C55.0173 1.92603 55.1469 1.69083 55.3605 1.55568C58.6401 -0.518778 62.821 -0.518778 66.1005 1.55568C66.3142 1.69083 66.4437 1.92603 66.4437 2.17885L66.4437 3.54534Z" fill="var(--fill-0, #CD422D)" id="Rectangle 167"/>
</g>
</g>
</svg>