<?xml version="1.0" encoding="utf-8"?>
<svg xmlns="http://www.w3.org/2000/svg" fill="none" height="100%" overflow="visible" preserveAspectRatio="none" style="display: block;" viewBox="0 0 82 22" width="100%">
<g id="Logo">
<g id="Sarama">
<path d="M67.1405 21.8717C65.8484 21.8717 64.8161 21.5838 64.0436 21.008C63.2852 20.4181 62.9059 19.6105 62.9059 18.5853C62.9059 17.4055 63.3413 16.5769 64.2121 16.0994C65.097 15.6219 66.2557 15.2989 67.6883 15.1303C67.8147 15.1163 68.1939 15.0741 68.8259 15.0039C69.472 14.9337 69.9355 14.8213 70.2164 14.6668C70.4973 14.4983 70.6377 14.2736 70.6377 13.9927C70.6237 13.445 70.413 13.0096 70.0057 12.6866C69.5984 12.3495 69.0436 12.181 68.3414 12.181C67.611 12.181 67.0001 12.3635 66.5085 12.7287C66.0169 13.0798 65.736 13.5503 65.6658 14.1402H63.1588C63.229 13.3677 63.4958 12.6795 63.9593 12.0756C64.4228 11.4577 65.0338 10.9801 65.7922 10.6431C66.5647 10.306 67.4284 10.1375 68.3835 10.1375C69.8582 10.1375 71.0029 10.5026 71.8175 11.2329C72.6462 11.9633 73.0605 12.9394 73.0605 14.1612V19.2173C73.0605 19.5403 73.2431 19.7018 73.6083 19.7018H74.2192V21.64H73.0394C72.4776 21.64 72.0212 21.5276 71.67 21.3029C71.333 21.0782 71.1153 20.7552 71.0169 20.3338C70.9748 20.2074 70.9397 20.081 70.9116 19.9546C70.2234 21.2327 68.9664 21.8717 67.1405 21.8717ZM67.6461 19.9125C68.5169 19.9125 69.2332 19.6878 69.795 19.2384C70.3568 18.7889 70.6377 18.192 70.6377 17.4477V15.8887C70.4551 16.1837 70.1532 16.3943 69.7318 16.5207C69.3105 16.6331 68.7206 16.7384 67.9622 16.8367C67.0914 16.935 66.4453 17.0825 66.0239 17.2791C65.6166 17.4758 65.413 17.8409 65.413 18.3746C65.413 18.8662 65.6026 19.2454 65.9818 19.5122C66.3751 19.7791 66.9298 19.9125 67.6461 19.9125Z" fill="var(--fill-0, white)" id="Vector"/>
<path d="M44.6373 21.683V10.4758H46.6462L46.8365 12.0406C47.203 11.4767 47.7106 11.0185 48.359 10.6661C49.0216 10.3137 49.7617 10.1375 50.5794 10.1375C51.3689 10.1375 52.0596 10.3278 52.6517 10.7084C53.2579 11.0749 53.709 11.5824 54.0051 12.2309C54.3293 11.6106 54.8368 11.1102 55.5276 10.7295C56.2184 10.3348 56.9938 10.1375 57.8537 10.1375C59.0238 10.1375 59.9542 10.5181 60.645 11.2793C61.3499 12.0265 61.7023 13.0062 61.7023 14.2186V21.683H59.1859V14.3455C59.1859 13.7252 59.0097 13.2318 58.6573 12.8653C58.3048 12.4846 57.8255 12.2943 57.2193 12.2943C56.3735 12.2943 55.6968 12.541 55.1893 13.0344C54.6818 13.5137 54.421 14.134 54.4069 14.8952V21.683H51.9116V14.3455C51.9116 13.7252 51.7354 13.2318 51.383 12.8653C51.0305 12.4846 50.5512 12.2943 49.945 12.2943C49.0992 12.2943 48.4225 12.541 47.915 13.0344C47.4075 13.5137 47.1466 14.134 47.1326 14.8952V21.683H44.6373Z" fill="var(--fill-0, white)" id="Vector_2"/>
<path d="M36.5185 21.9158C35.2216 21.9158 34.1854 21.6268 33.41 21.0488C32.6488 20.4568 32.2681 19.6462 32.2681 18.6171C32.2681 17.4329 32.7052 16.6012 33.5792 16.1219C34.4674 15.6426 35.6304 15.3184 37.0683 15.1492C37.1952 15.1351 37.5759 15.0928 38.2102 15.0223C38.8587 14.9518 39.3239 14.8391 39.6059 14.684C39.8878 14.5148 40.0288 14.2893 40.0288 14.0073C40.0147 13.4575 39.8033 13.0205 39.3944 12.6963C38.9856 12.358 38.4288 12.1888 37.7239 12.1888C36.9908 12.1888 36.3776 12.3721 35.8841 12.7386C35.3907 13.091 35.1088 13.5633 35.0383 14.1553H32.5219C32.5924 13.38 32.8602 12.6892 33.3254 12.0831C33.7907 11.4628 34.4039 10.9835 35.1652 10.6452C35.9405 10.3068 36.8075 10.1377 37.7662 10.1377C39.2464 10.1377 40.3954 10.5042 41.213 11.2372C42.0448 11.9703 42.4606 12.95 42.4606 14.1765V19.2514C42.4606 19.5757 42.6439 19.7378 43.0104 19.7378H43.6237V21.6832H42.4395C41.8756 21.6832 41.4174 21.5704 41.065 21.3449C40.7266 21.1193 40.5081 20.7951 40.4095 20.3722C40.3672 20.2453 40.3319 20.1184 40.3037 19.9915C39.6129 21.2744 38.3512 21.9158 36.5185 21.9158ZM37.026 19.9493C37.9001 19.9493 38.6191 19.7237 39.183 19.2726C39.7469 18.8215 40.0288 18.2224 40.0288 17.4752V15.9104C39.8456 16.2065 39.5425 16.4179 39.1195 16.5448C38.6966 16.6576 38.1045 16.7633 37.3432 16.862C36.4692 16.9607 35.8207 17.1087 35.3978 17.306C34.989 17.5034 34.7845 17.8699 34.7845 18.4056C34.7845 18.899 34.9749 19.2796 35.3555 19.5475C35.7502 19.8153 36.3071 19.9493 37.026 19.9493Z" fill="var(--fill-0, white)" id="Vector_3"/>
<path d="M25.3787 21.6827V10.4755H27.3876L27.6837 12.6746C28.4167 11.1239 29.7137 10.3486 31.5746 10.3486H31.9975V12.7803H31.5746C30.4045 12.7803 29.4952 13.0764 28.8467 13.6685C28.1982 14.2605 27.874 15.0852 27.874 16.1425V21.6827H25.3787Z" fill="var(--fill-0, white)" id="Vector_4"/>
<path d="M17.2624 21.9158C15.9655 21.9158 14.9293 21.6268 14.1539 21.0488C13.3927 20.4568 13.012 19.6462 13.012 18.6171C13.012 17.4329 13.4491 16.6012 14.3231 16.1219C15.2112 15.6426 16.3743 15.3184 17.8122 15.1492C17.9391 15.1351 18.3197 15.0928 18.9541 15.0223C19.6026 14.9518 20.0678 14.8391 20.3498 14.684C20.6317 14.5148 20.7727 14.2893 20.7727 14.0073C20.7586 13.4575 20.5472 13.0205 20.1383 12.6963C19.7295 12.358 19.1726 12.1888 18.4678 12.1888C17.7347 12.1888 17.1215 12.3721 16.628 12.7386C16.1346 13.091 15.8527 13.5633 15.7822 14.1553H13.2658C13.3363 13.38 13.6041 12.6892 14.0693 12.0831C14.5346 11.4628 15.1478 10.9835 15.9091 10.6452C16.6844 10.3068 17.5514 10.1377 18.5101 10.1377C19.9903 10.1377 21.1393 10.5042 21.9569 11.2372C22.7887 11.9703 23.2045 12.95 23.2045 14.1765V19.2514C23.2045 19.5757 23.3878 19.7378 23.7543 19.7378H24.3676V21.6832H23.1834C22.6195 21.6832 22.1613 21.5704 21.8089 21.3449C21.4705 21.1193 21.252 20.7951 21.1533 20.3722C21.1111 20.2453 21.0758 20.1184 21.0476 19.9915C20.3568 21.2744 19.0951 21.9158 17.2624 21.9158ZM17.7699 19.9493C18.644 19.9493 19.363 19.7237 19.9269 19.2726C20.4908 18.8215 20.7727 18.2224 20.7727 17.4752V15.9104C20.5894 16.2065 20.2864 16.4179 19.8634 16.5448C19.4405 16.6576 18.8484 16.7633 18.0871 16.862C17.2131 16.9607 16.5646 17.1087 16.1417 17.306C15.7329 17.5034 15.5284 17.8699 15.5284 18.4056C15.5284 18.899 15.7188 19.2796 16.0994 19.5475C16.4941 19.8153 17.051 19.9493 17.7699 19.9493Z" fill="var(--fill-0, white)" id="Vector_5"/>
<path d="M6.68222 22C5.39935 22 4.2645 21.8026 3.27767 21.4079C2.29085 20.9991 1.50843 20.4282 0.930436 19.6951C0.366536 18.948 0.0563901 18.0881 0 17.1154H2.60099C2.71377 17.933 3.12965 18.5744 3.84862 19.0396C4.5676 19.5048 5.51213 19.7374 6.68222 19.7374C7.64085 19.7374 8.36688 19.5683 8.86029 19.2299C9.3678 18.8775 9.62156 18.3841 9.62156 17.7497C9.62156 17.214 9.43124 16.7982 9.05061 16.5021C8.66997 16.2061 8.07788 15.9312 7.27432 15.6775L4.86364 14.9585C3.9896 14.6907 3.25653 14.4228 2.66443 14.155C2.08643 13.8871 1.56482 13.4783 1.09961 12.9285C0.648486 12.3787 0.422926 11.6598 0.422926 10.7717C0.422926 9.95403 0.634388 9.22803 1.05731 8.59366C1.49434 7.95929 2.10758 7.46589 2.89704 7.11346C3.7006 6.74694 4.63808 6.56367 5.7095 6.56367C7.49988 6.56367 8.93078 7.01478 10.0022 7.917C11.0736 8.81921 11.6586 10.0527 11.7573 11.6175H9.17749C9.12109 10.7576 8.78275 10.0809 8.16246 9.5875C7.55627 9.08001 6.71042 8.82626 5.62491 8.82626C4.80725 8.82626 4.15172 8.98838 3.65831 9.31261C3.17899 9.63684 2.93933 10.0809 2.93933 10.6448C2.93933 11.0395 3.05211 11.3637 3.27767 11.6175C3.51733 11.8571 3.79223 12.0404 4.10238 12.1673C4.42662 12.2941 4.94823 12.4774 5.6672 12.7171L7.90871 13.4149C8.81095 13.6968 9.55107 13.9858 10.1291 14.2818C10.7212 14.5638 11.2146 14.9726 11.6093 15.5083C12.004 16.044 12.2014 16.7488 12.2014 17.6229C12.2014 18.511 11.9758 19.2863 11.5247 19.9489C11.0736 20.6114 10.4322 21.1189 9.60041 21.4714C8.76866 21.8238 7.79593 22 6.68222 22Z" fill="var(--fill-0, white)" id="Vector_6"/>
</g>
<g id="Group 183">
<path d="M80.1616 2.77334C78.6952 3.57642 76.8622 4.15254 74.7848 4.27355C77.159 7.29503 76.7051 10.455 76.7051 10.455C79.4458 8.25524 80.1616 5.846 80.1616 2.77334Z" fill="var(--fill-0, #CD422D)" id="Rectangle 165"/>
<path d="M80.8596 2.36473C81.0112 2.26883 81.2092 2.37771 81.2092 2.55711V4.98387C81.2091 5.29269 81.0503 5.57951 80.7893 5.74461C79.4283 6.60554 77.9402 7.17343 76.4114 7.44969C76.308 7.08278 76.175 6.6961 76.0022 6.29832C75.8902 6.04044 75.7624 5.77725 75.6155 5.51219C75.8172 6.2894 75.8209 6.96688 75.7444 7.55028C72.9744 7.89507 70.1134 7.29432 67.6633 5.74461C67.4023 5.57951 67.2436 5.29271 67.2434 4.98387V2.55711C67.2434 2.37771 67.4414 2.26883 67.593 2.36473C71.644 4.92698 76.8087 4.92706 80.8596 2.36473Z" fill="var(--fill-0, #CD422D)" id="Subtract"/>
<path d="M81.2094 4.33342C81.2094 4.51282 81.0116 4.62177 80.86 4.52587C76.8089 1.96336 71.6444 1.96336 67.5933 4.52587C67.4417 4.62177 67.2439 4.51282 67.2439 4.33342L67.2439 2.66327C67.2439 2.35426 67.4022 2.06679 67.6633 1.90161C71.6716 -0.633842 76.7817 -0.633841 80.79 1.90161C81.0511 2.06679 81.2094 2.35426 81.2094 2.66327L81.2094 4.33342Z" fill="var(--fill-0, #CD422D)" id="Rectangle 167"/>
</g>
</g>
</svg>