<?xml version="1.0" encoding="utf-8"?>
<svg xmlns="http://www.w3.org/2000/svg" fill="none" height="100%" overflow="visible" preserveAspectRatio="none" style="display: block;" viewBox="0 0 82 22" width="100%">
<g id="Logo">
<g id="Sarama">
<path d="M67.1407 21.8718C65.8486 21.8718 64.8163 21.5839 64.0438 21.008C63.2854 20.4182 62.9061 19.6106 62.9061 18.5853C62.9061 17.4056 63.3415 16.577 64.2123 16.0994C65.0972 15.6219 66.2559 15.2989 67.6885 15.1304C67.8149 15.1163 68.1941 15.0742 68.8261 15.004C69.4722 14.9337 69.9357 14.8214 70.2166 14.6669C70.4975 14.4984 70.638 14.2736 70.638 13.9928C70.6239 13.445 70.4132 13.0096 70.0059 12.6866C69.5986 12.3495 69.0438 12.181 68.3416 12.181C67.6112 12.181 67.0003 12.3636 66.5087 12.7287C66.0171 13.0799 65.7362 13.5503 65.666 14.1402H63.1589C63.2292 13.3678 63.496 12.6796 63.9595 12.0757C64.423 11.4577 65.034 10.9802 65.7924 10.6431C66.5649 10.306 67.4287 10.1375 68.3837 10.1375C69.8584 10.1375 71.0031 10.5027 71.8177 11.233C72.6464 11.9633 73.0607 12.9394 73.0607 14.1613V19.2173C73.0607 19.5404 73.2433 19.7019 73.6085 19.7019H74.2194V21.64H73.0397C72.4779 21.64 72.0214 21.5277 71.6703 21.303C71.3332 21.0783 71.1155 20.7552 71.0172 20.3339C70.975 20.2075 70.9399 20.0811 70.9118 19.9547C70.2236 21.2328 68.9666 21.8718 67.1407 21.8718ZM67.6463 19.9126C68.5171 19.9126 69.2334 19.6878 69.7952 19.2384C70.3571 18.789 70.638 18.1921 70.638 17.4477V15.8888C70.4554 16.1837 70.1534 16.3944 69.732 16.5208C69.3107 16.6331 68.7208 16.7385 67.9624 16.8368C67.0916 16.9351 66.4455 17.0826 66.0241 17.2792C65.6168 17.4758 65.4132 17.841 65.4132 18.3747C65.4132 18.8662 65.6028 19.2454 65.982 19.5123C66.3753 19.7791 66.9301 19.9126 67.6463 19.9126Z" fill="var(--fill-0, white)" id="Vector"/>
<path d="M44.6375 21.683V10.4758H46.6464L46.8367 12.0406C47.2033 11.4767 47.7108 11.0186 48.3593 10.6661C49.0219 10.3137 49.762 10.1375 50.5796 10.1375C51.3691 10.1375 52.0599 10.3278 52.652 10.7084C53.2582 11.075 53.7093 11.5825 54.0053 12.2309C54.3296 11.6107 54.8371 11.1102 55.5279 10.7296C56.2187 10.3349 56.994 10.1375 57.854 10.1375C59.0241 10.1375 59.9545 10.5181 60.6453 11.2794C61.3502 12.0265 61.7026 13.0063 61.7026 14.2186V21.683H59.1862V14.3455C59.1862 13.7252 59.01 13.2318 58.6576 12.8653C58.3051 12.4847 57.8258 12.2944 57.2196 12.2944C56.3737 12.2944 55.6971 12.5411 55.1895 13.0345C54.682 13.5138 54.4212 14.134 54.4071 14.8953V21.683H51.9119V14.3455C51.9119 13.7252 51.7356 13.2318 51.3832 12.8653C51.0308 12.4847 50.5514 12.2944 49.9452 12.2944C49.0994 12.2944 48.4227 12.5411 47.9152 13.0345C47.4077 13.5138 47.1469 14.134 47.1328 14.8953V21.683H44.6375Z" fill="var(--fill-0, white)" id="Vector_2"/>
<path d="M36.5186 21.9158C35.2217 21.9158 34.1855 21.6268 33.4101 21.0488C32.6488 20.4568 32.2682 19.6462 32.2682 18.6171C32.2682 17.4329 32.7052 16.6012 33.5793 16.1219C34.4674 15.6426 35.6305 15.3184 37.0684 15.1492C37.1953 15.1351 37.576 15.0928 38.2103 15.0223C38.8588 14.9518 39.3241 14.8391 39.606 14.684C39.888 14.5148 40.0289 14.2893 40.0289 14.0073C40.0148 13.4575 39.8034 13.0205 39.3945 12.6963C38.9857 12.358 38.4289 12.1888 37.724 12.1888C36.9909 12.1888 36.3777 12.3721 35.8842 12.7386C35.3908 13.091 35.1089 13.5633 35.0384 14.1553H32.522C32.5925 13.38 32.8603 12.6892 33.3255 12.0831C33.7908 11.4628 34.404 10.9835 35.1653 10.6452C35.9406 10.3068 36.8076 10.1377 37.7663 10.1377C39.2465 10.1377 40.3955 10.5042 41.2131 11.2372C42.0449 11.9703 42.4608 12.95 42.4608 14.1765V19.2515C42.4608 19.5757 42.644 19.7378 43.0106 19.7378H43.6238V21.6832H42.4396C41.8757 21.6832 41.4175 21.5704 41.0651 21.3449C40.7268 21.1193 40.5083 20.7951 40.4096 20.3722C40.3673 20.2453 40.332 20.1184 40.3038 19.9916C39.6131 21.2744 38.3513 21.9158 36.5186 21.9158ZM37.0261 19.9493C37.9002 19.9493 38.6192 19.7237 39.1831 19.2726C39.747 18.8215 40.0289 18.2224 40.0289 17.4752V15.9104C39.8457 16.2065 39.5426 16.4179 39.1196 16.5448C38.6967 16.6576 38.1046 16.7633 37.3433 16.862C36.4693 16.9607 35.8208 17.1087 35.3979 17.306C34.989 17.5034 34.7846 17.8699 34.7846 18.4056C34.7846 18.899 34.9749 19.2796 35.3556 19.5475C35.7503 19.8153 36.3072 19.9493 37.0261 19.9493Z" fill="var(--fill-0, white)" id="Vector_3"/>
<path d="M25.379 21.6826V10.4754H27.3879L27.684 12.6746C28.417 11.1239 29.714 10.3486 31.5749 10.3486H31.9978V12.7803H31.5749C30.4048 12.7803 29.4955 13.0764 28.847 13.6684C28.1985 14.2605 27.8743 15.0852 27.8743 16.1425V21.6826H25.379Z" fill="var(--fill-0, white)" id="Vector_4"/>
<path d="M17.2623 21.9158C15.9654 21.9158 14.9292 21.6268 14.1538 21.0488C13.3926 20.4568 13.0119 19.6462 13.0119 18.6171C13.0119 17.4329 13.4489 16.6012 14.323 16.1219C15.2111 15.6426 16.3742 15.3184 17.8122 15.1492C17.939 15.1351 18.3197 15.0928 18.9541 15.0223C19.6025 14.9518 20.0678 14.8391 20.3497 14.684C20.6317 14.5148 20.7726 14.2893 20.7726 14.0073C20.7585 13.4575 20.5471 13.0205 20.1383 12.6963C19.7294 12.358 19.1726 12.1888 18.4677 12.1888C17.7346 12.1888 17.1214 12.3721 16.628 12.7386C16.1345 13.091 15.8526 13.5633 15.7821 14.1553H13.2657C13.3362 13.38 13.604 12.6892 14.0692 12.0831C14.5345 11.4628 15.1477 10.9835 15.909 10.6452C16.6843 10.3068 17.5513 10.1377 18.51 10.1377C19.9902 10.1377 21.1392 10.5042 21.9568 11.2372C22.7886 11.9703 23.2045 12.95 23.2045 14.1765V19.2515C23.2045 19.5757 23.3877 19.7378 23.7543 19.7378H24.3675V21.6832H23.1833C22.6194 21.6832 22.1613 21.5704 21.8088 21.3449C21.4705 21.1193 21.252 20.7951 21.1533 20.3722C21.111 20.2453 21.0757 20.1184 21.0475 19.9916C20.3568 21.2744 19.095 21.9158 17.2623 21.9158ZM17.7699 19.9493C18.6439 19.9493 19.3629 19.7237 19.9268 19.2726C20.4907 18.8215 20.7726 18.2224 20.7726 17.4752V15.9104C20.5894 16.2065 20.2863 16.4179 19.8634 16.5448C19.4404 16.6576 18.8483 16.7633 18.0871 16.862C17.213 16.9607 16.5645 17.1087 16.1416 17.306C15.7328 17.5034 15.5283 17.8699 15.5283 18.4056C15.5283 18.899 15.7187 19.2796 16.0993 19.5475C16.494 19.8153 17.0509 19.9493 17.7699 19.9493Z" fill="var(--fill-0, white)" id="Vector_5"/>
<path d="M6.68226 22C5.39938 22 4.26452 21.8026 3.27769 21.4079C2.29086 20.9991 1.50844 20.4281 0.930441 19.6951C0.366537 18.9479 0.0563904 18.088 0 17.1153H2.601C2.71379 17.933 3.12966 18.5744 3.84864 19.0396C4.56762 19.5048 5.51216 19.7374 6.68226 19.7374C7.64089 19.7374 8.36692 19.5682 8.86033 19.2299C9.36785 18.8775 9.6216 18.3841 9.6216 17.7497C9.6216 17.214 9.43129 16.7981 9.05065 16.5021C8.67002 16.2061 8.07792 15.9312 7.27435 15.6774L4.86367 14.9585C3.98962 14.6906 3.25654 14.4228 2.66444 14.1549C2.08644 13.8871 1.56483 13.4783 1.09961 12.9285C0.648489 12.3787 0.422928 11.6597 0.422928 10.7716C0.422928 9.95398 0.634391 9.22798 1.05732 8.59361C1.49434 7.95924 2.10759 7.46584 2.89705 7.11341C3.70062 6.74689 4.63811 6.56362 5.70952 6.56362C7.49992 6.56362 8.93082 7.01473 10.0022 7.91695C11.0737 8.81916 11.6587 10.0527 11.7574 11.6174H9.17753C9.12114 10.7575 8.7828 10.0809 8.1625 9.58746C7.55631 9.07996 6.71045 8.82621 5.62494 8.82621C4.80728 8.82621 4.15174 8.98833 3.65832 9.31256C3.17901 9.63679 2.93935 10.0809 2.93935 10.6447C2.93935 11.0395 3.05213 11.3637 3.27769 11.6174C3.51735 11.8571 3.79225 12.0404 4.1024 12.1672C4.42664 12.2941 4.94825 12.4774 5.66723 12.717L7.90875 13.4148C8.81099 13.6968 9.55112 13.9858 10.1291 14.2818C10.7212 14.5637 11.2146 14.9726 11.6094 15.5082C12.0041 16.0439 12.2015 16.7488 12.2015 17.6228C12.2015 18.5109 11.9759 19.2863 11.5248 19.9488C11.0737 20.6114 10.4322 21.1189 9.60046 21.4713C8.7687 21.8238 7.79597 22 6.68226 22Z" fill="var(--fill-0, white)" id="Vector_6"/>
</g>
<g id="Group 183">
<path d="M80.1616 2.77338C78.6953 3.57646 76.8623 4.15258 74.7849 4.27359C77.159 7.29507 76.7051 10.455 76.7051 10.455C79.4459 8.25528 80.1616 5.84604 80.1616 2.77338Z" fill="var(--fill-0, #CD422D)" id="Rectangle 165"/>
<path d="M80.8595 2.36405C81.011 2.26827 81.2089 2.3772 81.2091 2.55643V4.98319C81.2091 5.2922 81.0503 5.57973 80.7891 5.74491C79.4279 6.60595 77.9393 7.17282 76.4102 7.44901C76.3069 7.08245 76.1746 6.69597 76.002 6.29862C75.89 6.04075 75.7622 5.77752 75.6153 5.51249C75.8171 6.2897 75.8208 6.96717 75.7442 7.55057C72.9742 7.89533 70.1131 7.29454 67.6632 5.74491C67.402 5.57973 67.2432 5.2922 67.2432 4.98319V2.55643C67.2434 2.37718 67.4413 2.26819 67.5928 2.36405C71.644 4.92652 76.8084 4.92655 80.8595 2.36405Z" fill="var(--fill-0, #CD422D)" id="Subtract"/>
<path d="M81.2093 4.33339C81.2093 4.5128 81.0115 4.62174 80.8599 4.52584C76.8088 1.96333 71.6442 1.96333 67.5931 4.52584C67.4415 4.62174 67.2437 4.51279 67.2437 4.33339L67.2437 2.66324C67.2437 2.35423 67.402 2.06676 67.6631 1.90158C71.6715 -0.633876 76.7815 -0.633875 80.7899 1.90158C81.051 2.06676 81.2093 2.35423 81.2093 2.66324L81.2093 4.33339Z" fill="var(--fill-0, #CD422D)" id="Rectangle 167"/>
</g>
</g>
</svg>